<svg width="64" height="65" viewBox="0 0 64 65" fill="none" xmlns="http://www.w3.org/2000/svg">
<g clip-path="url(#clip0_59_1789)">
<path d="M31.9735 6.07788C17.2535 6.07788 5.3335 18.0245 5.3335 32.7445C5.3335 47.4645 17.2535 59.4112 31.9735 59.4112C46.7202 59.4112 58.6668 47.4645 58.6668 32.7445C58.6668 18.0245 46.7202 6.07788 31.9735 6.07788ZM32.0002 54.0779C20.2135 54.0779 10.6668 44.5312 10.6668 32.7445C10.6668 20.9579 20.2135 11.4112 32.0002 11.4112C43.7868 11.4112 53.3335 20.9579 53.3335 32.7445C53.3335 44.5312 43.7868 54.0779 32.0002 54.0779ZM33.3335 19.4112H29.3335V35.4112L43.3335 43.8112L45.3335 40.5312L33.3335 33.4112V19.4112Z" fill="#012970"/>
</g>
<defs>
<clipPath id="clip0_59_1789">
<rect width="64" height="64" fill="white" transform="translate(0 0.744629)"/>
</clipPath>
</defs>
</svg>
