<svg width="33" height="33" viewBox="0 0 33 33" fill="none" xmlns="http://www.w3.org/2000/svg">
<rect x="0.0595703" y="0.86908" width="32" height="32" rx="3" fill="#ECF3FF"/>
<path d="M20.5397 12.3091C20.753 12.0958 21.0064 11.9891 21.2997 11.9891C21.593 11.9891 21.8464 12.0958 22.0597 12.3091C22.273 12.5224 22.393 12.7891 22.4197 13.1091C22.4464 13.4291 22.353 13.6958 22.1397 13.9091L16.1397 21.3491C15.9264 21.6158 15.6597 21.7491 15.3397 21.7491C15.0197 21.7491 14.753 21.6424 14.5397 21.4291L10.5397 17.4291C10.2197 17.1624 10.113 16.8024 10.2197 16.3491C10.3264 15.8958 10.593 15.6158 11.0197 15.5091C11.4464 15.4024 11.8197 15.5091 12.1397 15.8291L15.2597 19.0291L20.5397 12.3091Z" fill="#444444"/>
</svg>
