<svg width="76" height="81" viewBox="0 0 76 81" fill="none" xmlns="http://www.w3.org/2000/svg">
<rect y="0.65918" width="76" height="80" rx="4" fill="#CFFDDF"/>
<path d="M41 55.6192L36.8 50.3692H29C28.58 50.3692 28.225 50.2242 27.935 49.9342C27.645 49.6442 27.5 49.2892 27.5 48.8692V32.5492C27.5 32.1292 27.645 31.7742 27.935 31.4842C28.225 31.1942 28.58 31.0492 29 31.0492H53C53.42 31.0492 53.775 31.1942 54.065 31.4842C54.355 31.7742 54.5 32.1292 54.5 32.5492V48.8692C54.5 49.2892 54.355 49.6442 54.065 49.9342C53.775 50.2242 53.42 50.3692 53 50.3692H45.2L41 55.6192ZM43.76 47.3692H51.5V34.0492H30.5V47.3692H38.24L41 50.8192L43.76 47.3692ZM23 24.8692H48.5V27.8692H24.5V44.3692H21.5V26.3692C21.5 25.9692 21.645 25.6242 21.935 25.3342C22.225 25.0442 22.58 24.8892 23 24.8692Z" fill="#08DA4E"/>
</svg>
