<svg width="33" height="33" viewBox="0 0 33 33" fill="none" xmlns="http://www.w3.org/2000/svg">
<rect x="0.0595703" y="0.659088" width="32" height="32" rx="3" fill="#ECF3FF"/>
<path d="M20.5397 12.0991C20.753 11.8858 21.0064 11.7791 21.2997 11.7791C21.593 11.7791 21.8464 11.8858 22.0597 12.0991C22.273 12.3124 22.393 12.5791 22.4197 12.8991C22.4464 13.2191 22.353 13.4858 22.1397 13.6991L16.1397 21.1391C15.9264 21.4058 15.6597 21.5391 15.3397 21.5391C15.0197 21.5391 14.753 21.4324 14.5397 21.2191L10.5397 17.2191C10.2197 16.9524 10.113 16.5924 10.2197 16.1391C10.3264 15.6858 10.593 15.4058 11.0197 15.2991C11.4464 15.1924 11.8197 15.2991 12.1397 15.6191L15.2597 18.8191L20.5397 12.0991Z" fill="#444444"/>
</svg>
