<svg width="45" height="65" viewBox="0 0 45 65" fill="none" xmlns="http://www.w3.org/2000/svg">
<path d="M22.5 0.458984C10.0607 0.458984 0 10.5197 0 22.959C0 39.834 22.5 64.7447 22.5 64.7447C22.5 64.7447 45 39.834 45 22.959C45 10.5197 34.9393 0.458984 22.5 0.458984ZM6.42857 22.959C6.42857 14.0876 13.6286 6.88756 22.5 6.88756C31.3714 6.88756 38.5714 14.0876 38.5714 22.959C38.5714 32.2161 29.3143 46.0697 22.5 54.7161C15.8143 46.134 6.42857 32.1197 6.42857 22.959Z" fill="#012970"/>
<path d="M22.5001 30.9945C26.9381 30.9945 30.5358 27.3968 30.5358 22.9588C30.5358 18.5208 26.9381 14.9231 22.5001 14.9231C18.0621 14.9231 14.4644 18.5208 14.4644 22.9588C14.4644 27.3968 18.0621 30.9945 22.5001 30.9945Z" fill="#012970"/>
</svg>
