<svg width="42" height="43" viewBox="0 0 42 43" fill="none" xmlns="http://www.w3.org/2000/svg">
<g clip-path="url(#clip0_49_1059)">
<path d="M19.74 10.3589C19.74 10.9189 19.53 11.3856 19.11 11.7589C18.69 12.1322 18.2233 12.3189 17.71 12.3189C17.1967 12.3189 16.7533 12.1322 16.38 11.7589C16.0067 11.3856 15.82 10.9189 15.82 10.3589C15.82 9.7989 16.0067 9.33223 16.38 8.9589C16.7533 8.58557 17.1967 8.3989 17.71 8.3989C18.2233 8.3989 18.69 8.58557 19.11 8.9589C19.53 9.33223 19.74 9.7989 19.74 10.3589ZM17.36 14.4189L20.86 16.7989L25.76 11.8989C26.04 11.7122 26.32 11.6656 26.6 11.7589L28.84 13.0189V18.8989C28.84 19.2722 28.7233 19.5989 28.49 19.8789C28.2567 20.1589 27.9533 20.2989 27.58 20.2989H14.42C14.0467 20.2989 13.7433 20.1589 13.51 19.8789C13.2767 19.5989 13.16 19.2722 13.16 18.8989V17.6389L15.12 15.9589C16.52 14.8389 17.2667 14.3256 17.36 14.4189ZM13.16 25.4789C13.16 25.1056 13.2767 24.8022 13.51 24.5689C13.7433 24.3356 14.0467 24.2189 14.42 24.2189H27.58C27.9533 24.2189 28.2567 24.3356 28.49 24.5689C28.7233 24.8022 28.84 25.1056 28.84 25.4789C28.84 25.8522 28.7233 26.1556 28.49 26.3889C28.2567 26.6222 27.9533 26.7856 27.58 26.8789H14.42C14.0467 26.8789 13.7433 26.7389 13.51 26.4589C13.2767 26.1789 13.16 25.8522 13.16 25.4789ZM13.16 30.7989C13.16 30.4256 13.2767 30.0989 13.51 29.8189C13.7433 29.5389 14.0467 29.3989 14.42 29.3989H19.74C20.1133 29.3989 20.4167 29.5389 20.65 29.8189C20.8833 30.0989 21 30.4256 21 30.7989C21 31.1722 20.8833 31.4756 20.65 31.7089C20.4167 31.9422 20.1133 32.0589 19.74 32.0589H14.42C14.0467 32.0589 13.7433 31.9422 13.51 31.7089C13.2767 31.4756 13.16 31.1722 13.16 30.7989ZM7.84 0.558899H34.16C35.56 0.558899 36.7733 1.07223 37.8 2.0989C38.8267 3.12557 39.34 4.38557 39.34 5.8789V37.2389C39.34 38.7322 38.8267 39.9922 37.8 41.0189C36.7733 42.0456 35.56 42.5589 34.16 42.5589H7.84C6.44 42.5589 5.22667 42.0456 4.2 41.0189C3.17333 39.9922 2.66 38.7789 2.66 37.3789V34.7189H5.32V37.2389C5.32 37.9856 5.55333 38.6156 6.02 39.1289C6.48667 39.6422 7.09333 39.8989 7.84 39.8989H34.16C34.9067 39.8989 35.5367 39.6422 36.05 39.1289C36.5633 38.6156 36.82 37.9856 36.82 37.2389V5.7389C36.82 5.08557 36.5633 4.50223 36.05 3.9889C35.5367 3.47557 34.9067 3.2189 34.16 3.2189H7.84C7.09333 3.2189 6.48667 3.47557 6.02 3.9889C5.55333 4.50223 5.32 5.08557 5.32 5.7389V8.3989H2.66V5.7389C2.66 4.3389 3.17333 3.12557 4.2 2.0989C5.22667 1.07223 6.44 0.558899 7.84 0.558899ZM2.66 13.7189V12.3189C2.66 11.9456 2.77667 11.6422 3.01 11.4089C3.24333 11.1756 3.54667 11.0589 3.92 11.0589C4.29333 11.0589 4.62 11.1756 4.9 11.4089C5.18 11.6422 5.32 11.9456 5.32 12.3189V13.7189H6.58C6.95333 13.7189 7.25667 13.8356 7.49 14.0689C7.72333 14.3022 7.84 14.6056 7.84 14.9789C7.84 15.3522 7.72333 15.6789 7.49 15.9589C7.25667 16.2389 6.95333 16.3789 6.58 16.3789H1.26C0.886667 16.2856 0.583333 16.1222 0.35 15.8889C0.116667 15.6556 0 15.3522 0 14.9789C0 14.6056 0.116667 14.3022 0.35 14.0689C0.583333 13.8356 0.886667 13.7189 1.26 13.7189H2.66ZM2.66 21.5589V20.2989C2.66 19.9256 2.77667 19.5989 3.01 19.3189C3.24333 19.0389 3.54667 18.8989 3.92 18.8989C4.29333 18.8989 4.62 19.0389 4.9 19.3189C5.18 19.5989 5.32 19.9256 5.32 20.2989V21.5589H6.58C6.95333 21.5589 7.25667 21.6756 7.49 21.9089C7.72333 22.1422 7.84 22.4456 7.84 22.8189C7.84 23.1922 7.72333 23.5189 7.49 23.7989C7.25667 24.0789 6.95333 24.2189 6.58 24.2189H1.26C0.886667 24.2189 0.583333 24.0789 0.35 23.7989C0.116667 23.5189 0 23.1922 0 22.8189C0 22.4456 0.116667 22.1422 0.35 21.9089C0.583333 21.6756 0.886667 21.5589 1.26 21.5589H2.66ZM2.66 29.3989V28.1389C2.66 27.7656 2.77667 27.4389 3.01 27.1589C3.24333 26.8789 3.54667 26.7622 3.92 26.8089C4.29333 26.8556 4.62 26.9956 4.9 27.2289C5.18 27.4622 5.32 27.7656 5.32 28.1389V29.3989H6.58C6.95333 29.3989 7.25667 29.5389 7.49 29.8189C7.72333 30.0989 7.84 30.4256 7.84 30.7989C7.84 31.1722 7.72333 31.4756 7.49 31.7089C7.25667 31.9422 6.95333 32.0589 6.58 32.0589H1.26C0.886667 32.0589 0.583333 31.9422 0.35 31.7089C0.116667 31.4756 0 31.1722 0 30.7989C0 30.4256 0.116667 30.0989 0.35 29.8189C0.583333 29.5389 0.886667 29.3989 1.26 29.3989H2.66Z" fill="#EE6C20"/>
</g>
<defs>
<clipPath id="clip0_49_1059">
<rect width="42" height="42" fill="white" transform="matrix(1 0 0 -1 0 42.5589)"/>
</clipPath>
</defs>
</svg>
