<svg width="13" height="13" viewBox="0 0 13 13" fill="none" xmlns="http://www.w3.org/2000/svg">
<path d="M2.01355 4.97989C2.09355 4.89989 2.18022 4.85989 2.27355 4.85989C2.36689 4.85989 2.45355 4.89989 2.53355 4.97989L6.77355 9.21989L11.0136 4.97989C11.0936 4.89989 11.1802 4.85989 11.2736 4.85989C11.3669 4.85989 11.4536 4.89989 11.5336 4.97989C11.6136 5.05989 11.6536 5.15323 11.6536 5.25989C11.6536 5.36656 11.6136 5.44656 11.5336 5.49989L7.05355 10.0199C6.97355 10.0999 6.88022 10.1399 6.77355 10.1399C6.66689 10.1399 6.57355 10.0999 6.49355 10.0199L2.01355 5.49989C1.93355 5.44656 1.89355 5.36656 1.89355 5.25989C1.89355 5.15323 1.93355 5.05989 2.01355 4.97989Z" fill="black"/>
</svg>
