<svg width="42" height="43" viewBox="0 0 42 43" fill="none" xmlns="http://www.w3.org/2000/svg">
<g clip-path="url(#clip0_49_1075)">
<path d="M39.34 37.2389C39.62 37.2389 39.8533 37.2389 40.04 37.2389C40.6 37.0522 41.0667 36.7722 41.44 36.3989C41.8133 36.0256 42 35.4656 42 34.7189C42 33.5056 41.6267 32.1989 40.88 30.7989C39.9467 28.9322 38.64 27.4389 36.96 26.3189C34.72 24.9189 32.0133 24.2189 28.84 24.2189C25.6667 24.2189 23.0067 24.9189 20.86 26.3189C19.0867 27.4389 17.7333 28.9322 16.8 30.7989C16.1467 32.1989 15.82 33.5056 15.82 34.7189C15.82 35.4656 16.0067 36.0256 16.38 36.3989C16.7533 36.7722 17.1733 37.0522 17.64 37.2389H18.34H39.34ZM18.48 34.7189C18.3867 34.7189 18.34 34.7189 18.34 34.7189C18.34 34.1589 18.48 33.5522 18.76 32.8989C19.1333 31.8722 19.6933 30.9389 20.44 30.0989C22.3067 27.9522 25.13 26.8556 28.91 26.8089C32.69 26.7622 35.5133 27.8589 37.38 30.0989C38.0333 30.9389 38.5467 31.8722 38.92 32.8989C39.2 33.5522 39.34 34.1589 39.34 34.7189H18.48ZM28.84 18.8989C30.3333 18.8989 31.5933 18.3856 32.62 17.3589C33.6467 16.3322 34.16 15.0956 34.16 13.6489C34.16 12.2022 33.6467 10.9656 32.62 9.93889C31.5933 8.91222 30.3567 8.39889 28.91 8.39889C27.4633 8.39889 26.2267 8.91222 25.2 9.93889C24.1733 10.9656 23.66 12.2022 23.66 13.6489C23.66 15.0956 24.1733 16.3322 25.2 17.3589C26.2267 18.3856 27.44 18.8989 28.84 18.8989ZM36.82 13.7189C36.82 15.8656 36.05 17.7089 34.51 19.2489C32.97 20.7889 31.1033 21.5589 28.91 21.5589C26.7167 21.5589 24.85 20.7889 23.31 19.2489C21.77 17.7089 21 15.8422 21 13.6489C21 11.4556 21.77 9.61222 23.31 8.11889C24.85 6.62556 26.7167 5.85556 28.91 5.80889C31.1033 5.76222 32.9467 6.50889 34.44 8.04889C35.9333 9.58889 36.68 11.4789 36.68 13.7189H36.82ZM18.2 24.9189C17.1733 24.5456 16.1 24.3122 14.98 24.2189C14.3267 24.2189 13.72 24.2189 13.16 24.2189C9.98667 24.2189 7.28 24.9189 5.04 26.3189C3.36 27.4389 2.05333 28.9322 1.12 30.7989C0.373333 32.1989 0 33.5056 0 34.7189C0 36.3989 0.886667 37.2389 2.66 37.2389H13.72C13.3467 36.4922 13.16 35.6522 13.16 34.7189C13.16 31.9189 14.0933 29.3522 15.96 27.0189C16.6133 26.2722 17.36 25.5722 18.2 24.9189ZM12.88 26.7389C11.2933 29.1656 10.5 31.8256 10.5 34.7189H2.66C2.66 34.2522 2.8 33.6456 3.08 32.8989C3.45333 31.8722 3.96667 30.9389 4.62 30.0989C6.48667 27.9522 9.24 26.8789 12.88 26.8789V26.7389ZM3.92 14.9789C3.92 12.8322 4.69 10.9889 6.23 9.44889C7.77 7.90889 9.63667 7.13889 11.83 7.13889C14.0233 7.13889 15.89 7.90889 17.43 9.44889C18.97 10.9889 19.74 12.8322 19.74 14.9789C19.74 17.1256 18.97 18.9689 17.43 20.5089C15.89 22.0489 14.0233 22.8189 11.83 22.8189C9.63667 22.8189 7.77 22.0489 6.23 20.5089C4.69 18.9689 3.92 17.1256 3.92 14.9789ZM11.76 9.79889C10.36 9.79889 9.14667 10.3122 8.12 11.3389C7.09333 12.3656 6.58 13.6022 6.58 15.0489C6.58 16.4956 7.09333 17.7322 8.12 18.7589C9.14667 19.7856 10.3833 20.2989 11.83 20.2989C13.2767 20.2989 14.5133 19.7856 15.54 18.7589C16.5667 17.7322 17.08 16.4956 17.08 15.0489C17.08 13.6022 16.5667 12.3656 15.54 11.3389C14.5133 10.3122 13.2533 9.79889 11.76 9.79889Z" fill="#BB0852"/>
</g>
<defs>
<clipPath id="clip0_49_1075">
<rect width="42" height="42" fill="white" transform="matrix(1 0 0 -1 0 42.5589)"/>
</clipPath>
</defs>
</svg>
