<svg width="13" height="13" viewBox="0 0 13 13" fill="none" xmlns="http://www.w3.org/2000/svg">
<path d="M3.58436 2.18446C3.66436 2.10446 3.75769 2.06446 3.86436 2.06446C3.97102 2.06446 4.05102 2.10446 4.10436 2.18446L8.62436 6.66446C8.70436 6.74446 8.74436 6.8378 8.74436 6.94446C8.74436 7.05113 8.70436 7.14446 8.62436 7.22446L4.10436 11.7045C4.05102 11.7845 3.97102 11.8245 3.86436 11.8245C3.75769 11.8245 3.66436 11.7845 3.58436 11.7045C3.50436 11.6245 3.46436 11.5378 3.46436 11.4445C3.46436 11.3511 3.50436 11.2645 3.58436 11.1845L7.82436 6.94446L3.58436 2.70446C3.50436 2.62446 3.46436 2.5378 3.46436 2.44446C3.46436 2.35113 3.50436 2.26446 3.58436 2.18446Z" fill="#D0D4FC"/>
</svg>
