<svg width="42" height="43" viewBox="0 0 42 43" fill="none" xmlns="http://www.w3.org/2000/svg">
<g clip-path="url(#clip0_49_1052)">
<path d="M21 39.8989C17.64 39.8989 14.56 39.0822 11.76 37.4489C8.96 35.8156 6.74333 33.5989 5.11 30.7989C3.47667 27.9989 2.66 24.9189 2.66 21.5589C2.66 18.1989 3.47667 15.1189 5.11 12.3189C6.74333 9.5189 8.96 7.30223 11.76 5.6689C14.56 4.03557 17.64 3.2189 21 3.2189C24.36 3.2189 27.44 4.03557 30.24 5.6689C33.04 7.30223 35.2567 9.5189 36.89 12.3189C38.5233 15.1189 39.34 18.1989 39.34 21.5589C39.34 24.9189 38.5233 27.9989 36.89 30.7989C35.2567 33.5989 33.04 35.8156 30.24 37.4489C27.44 39.0822 24.36 39.8989 21 39.8989ZM21 42.5589C24.8267 42.5589 28.35 41.6256 31.57 39.7589C34.79 37.8922 37.3333 35.3489 39.2 32.1289C41.0667 28.9089 42 25.3856 42 21.5589C42 17.7322 41.0667 14.2089 39.2 10.9889C37.3333 7.7689 34.79 5.22557 31.57 3.3589C28.35 1.49223 24.8267 0.558899 21 0.558899C17.1733 0.558899 13.65 1.49223 10.43 3.3589C7.21 5.22557 4.66667 7.7689 2.8 10.9889C0.933333 14.2089 0 17.7322 0 21.5589C0 25.3856 0.933333 28.9089 2.8 32.1289C4.66667 35.3489 7.21 37.8922 10.43 39.7589C13.65 41.6256 17.1733 42.5589 21 42.5589ZM11.2 25.6189C11.5733 25.4322 11.9233 25.3856 12.25 25.4789C12.5767 25.5722 12.8333 25.8056 13.02 26.1789C13.86 27.5789 14.98 28.6989 16.38 29.5389C17.78 30.3789 19.32 30.7989 21 30.7989C22.68 30.7989 24.22 30.3789 25.62 29.5389C27.02 28.6989 28.14 27.5789 28.98 26.1789C29.26 25.7122 29.6333 25.4789 30.1 25.4789C30.5667 25.4789 30.94 25.6889 31.22 26.1089C31.5 26.5289 31.5 26.9722 31.22 27.4389C30.1933 29.3056 28.77 30.7522 26.95 31.7789C25.13 32.8056 23.1467 33.3189 21 33.3189C18.8533 33.3189 16.87 32.8056 15.05 31.7789C13.23 30.7522 11.8067 29.3056 10.78 27.4389C10.5933 27.1589 10.5467 26.8322 10.64 26.4589C10.7333 26.0856 10.92 25.8056 11.2 25.6189ZM18.34 17.6389C18.34 18.7589 18.0833 19.6922 17.57 20.4389C17.0567 21.1856 16.45 21.5589 15.75 21.5589C15.05 21.5589 14.4433 21.1856 13.93 20.4389C13.4167 19.6922 13.16 18.7589 13.16 17.6389C13.16 16.5189 13.4167 15.5856 13.93 14.8389C14.4433 14.0922 15.05 13.7189 15.75 13.7189C16.45 13.7189 17.0567 14.0922 17.57 14.8389C18.0833 15.5856 18.34 16.5189 18.34 17.6389ZM28.84 17.6389C28.84 18.7589 28.5833 19.6922 28.07 20.4389C27.5567 21.1856 26.95 21.5589 26.25 21.5589C25.55 21.5589 24.9433 21.1856 24.43 20.4389C23.9167 19.6922 23.66 18.7589 23.66 17.6389C23.66 16.5189 23.9167 15.5856 24.43 14.8389C24.9433 14.0922 25.55 13.7189 26.25 13.7189C26.95 13.7189 27.5567 14.0922 28.07 14.8389C28.5833 15.5856 28.84 16.5189 28.84 17.6389Z" fill="#4154F1"/>
</g>
<defs>
<clipPath id="clip0_49_1052">
<rect width="42" height="42" fill="white" transform="matrix(1 0 0 -1 0 42.5589)"/>
</clipPath>
</defs>
</svg>
