<svg width="20" height="21" viewBox="0 0 20 21" fill="none" xmlns="http://www.w3.org/2000/svg">
<g clip-path="url(#clip0_63_677)">
<path d="M0 2.14463C0 1.78907 0.144444 1.46685 0.433333 1.17796C0.722222 0.889072 1.06667 0.744628 1.46667 0.744628H18.5333C18.9333 0.744628 19.2778 0.889072 19.5667 1.17796C19.8556 1.46685 20 1.78907 20 2.14463V19.3446C20 19.7002 19.8556 20.0224 19.5667 20.3113C19.2778 20.6002 18.9333 20.7446 18.5333 20.7446H1.46667C1.06667 20.7446 0.722222 20.6002 0.433333 20.3113C0.144444 20.0224 0 19.7002 0 19.3446V2.14463ZM6.2 17.478V8.47796H3.2V17.478H6.2ZM4.66667 7.21129C5.2 7.21129 5.62222 7.06685 5.93333 6.77796C6.24444 6.48907 6.38889 6.12241 6.36667 5.67796C6.34444 5.23352 6.18889 4.85574 5.9 4.54463C5.61111 4.23352 5.21111 4.07796 4.7 4.07796C4.18889 4.07796 3.77778 4.23352 3.46667 4.54463C3.15556 4.85574 3 5.23352 3 5.67796C3 6.12241 3.15556 6.48907 3.46667 6.77796C3.77778 7.06685 4.17778 7.21129 4.66667 7.21129ZM10.8 17.478V12.4113C10.8 12.1002 10.8444 11.8557 10.9333 11.678C11.0222 11.4113 11.2 11.1669 11.4667 10.9446C11.7333 10.7224 12.0667 10.6113 12.4667 10.6113C13 10.6113 13.3889 10.7891 13.6333 11.1446C13.8778 11.5002 14 12.0113 14 12.678V17.478H17V12.278C17 10.9446 16.6778 9.93352 16.0333 9.24463C15.3889 8.55574 14.5556 8.21129 13.5333 8.21129C12.8222 8.21129 12.2222 8.38907 11.7333 8.74463C11.3778 8.96685 11.0667 9.30018 10.8 9.74463V8.47796H7.8C7.84444 8.83352 7.84444 10.4335 7.8 13.278V17.478H10.8Z" fill="#012970" fill-opacity="0.5"/>
</g>
<defs>
<clipPath id="clip0_63_677">
<rect width="20" height="20" fill="white" transform="matrix(1 0 0 -1 0 20.7446)"/>
</clipPath>
</defs>
</svg>
