<svg width="20" height="21" viewBox="0 0 20 21" fill="none" xmlns="http://www.w3.org/2000/svg">
<g clip-path="url(#clip0_63_674)">
<path d="M10 0.744628C8.13333 0.744628 6.74444 0.76685 5.83333 0.811295C4.92222 0.855739 4.13333 1.01129 3.46667 1.27796C2.8 1.54463 2.21111 1.93352 1.7 2.44463C1.18889 2.95574 0.8 3.54463 0.533333 4.21129C0.266667 4.87796 0.111111 5.66685 0.0666667 6.57796C0.0222222 7.48907 0 8.87796 0 10.7446C0 12.6113 0.0222222 14.0002 0.0666667 14.9113C0.111111 15.8224 0.266667 16.6113 0.533333 17.278C0.8 17.9446 1.18889 18.5335 1.7 19.0446C2.21111 19.5557 2.8 19.9446 3.46667 20.2113C4.13333 20.478 4.92222 20.6335 5.83333 20.678C6.74444 20.7224 8.13333 20.7446 10 20.7446C11.8667 20.7446 13.2556 20.7224 14.1667 20.678C15.0778 20.6335 15.8667 20.478 16.5333 20.2113C17.2 19.9446 17.7889 19.5557 18.3 19.0446C18.8111 18.5335 19.2 17.9446 19.4667 17.278C19.7333 16.6113 19.8889 15.8224 19.9333 14.9113C19.9778 14.0002 20 12.6113 20 10.7446C20 8.87796 19.9778 7.48907 19.9333 6.57796C19.8889 5.66685 19.7333 4.87796 19.4667 4.21129C19.2 3.54463 18.8111 2.95574 18.3 2.44463C17.7889 1.93352 17.2 1.54463 16.5333 1.27796C15.8667 1.01129 15.0778 0.855739 14.1667 0.811295C13.2556 0.76685 11.8667 0.744628 10 0.744628ZM9.13333 2.54463H10C11.8667 2.54463 13.2222 2.56685 14.0667 2.61129C14.7778 2.65574 15.3667 2.76685 15.8333 2.94463C16.3 3.12241 16.7 3.37796 17.0333 3.71129C17.3667 4.04463 17.6222 4.44463 17.8 4.91129C17.9778 5.37796 18.0889 5.96685 18.1333 6.67796C18.1778 7.52241 18.2 8.87796 18.2 10.7446C18.2 12.6113 18.1778 13.9669 18.1333 14.8113C18.0889 15.5224 17.9778 16.1113 17.8 16.578C17.6222 17.0446 17.3667 17.4446 17.0333 17.778C16.7 18.1113 16.3 18.3669 15.8333 18.5446C15.3667 18.7224 14.7778 18.8335 14.0667 18.878C13.1778 18.9224 11.8222 18.9446 10 18.9446C8.17778 18.9446 6.82222 18.9224 5.93333 18.878C5.22222 18.8335 4.63333 18.7224 4.16667 18.5446C3.7 18.3669 3.3 18.1113 2.96667 17.778C2.63333 17.4446 2.37778 17.0446 2.2 16.578C2.02222 16.1113 1.91111 15.5224 1.86667 14.8113C1.82222 13.9224 1.8 12.5557 1.8 10.7113C1.8 8.86685 1.82222 7.52241 1.86667 6.67796C1.91111 5.96685 2.02222 5.37796 2.2 4.91129C2.37778 4.44463 2.63333 4.04463 2.96667 3.71129C3.3 3.37796 3.7 3.12241 4.16667 2.94463C4.63333 2.76685 5.24444 2.65574 6 2.61129C6.75556 2.56685 7.8 2.54463 9.13333 2.54463ZM15.3333 4.21129C15.0222 4.21129 14.7444 4.32241 14.5 4.54463C14.2556 4.76685 14.1333 5.04463 14.1333 5.37796C14.1333 5.71129 14.2556 6.00018 14.5 6.24463C14.7444 6.48907 15.0333 6.61129 15.3667 6.61129C15.7 6.61129 15.9778 6.48907 16.2 6.24463C16.4222 6.00018 16.5333 5.71129 16.5333 5.37796C16.5333 5.04463 16.4222 4.76685 16.2 4.54463C15.9778 4.32241 15.6889 4.21129 15.3333 4.21129ZM10 5.61129C9.06667 5.61129 8.2 5.83352 7.4 6.27796C6.6 6.72241 5.96667 7.34463 5.5 8.14463C5.03333 8.94463 4.8 9.8113 4.8 10.7446C4.8 11.678 5.03333 12.5446 5.5 13.3446C5.96667 14.1446 6.6 14.7669 7.4 15.2113C8.2 15.6557 9.06667 15.878 10 15.878C10.9333 15.878 11.7889 15.6446 12.5667 15.178C13.3444 14.7113 13.9556 14.0891 14.4 13.3113C14.8444 12.5335 15.0667 11.678 15.0667 10.7446C15.0667 9.8113 14.8444 8.95574 14.4 8.17796C13.9556 7.40018 13.3444 6.77796 12.5667 6.31129C11.7889 5.84463 10.9333 5.61129 10 5.61129ZM10 7.41129C10.5778 7.41129 11.1333 7.55574 11.6667 7.84463C12.2 8.13352 12.6111 8.54463 12.9 9.07796C13.1889 9.61129 13.3333 10.1669 13.3333 10.7446C13.3333 11.3224 13.1889 11.878 12.9 12.4113C12.6111 12.9446 12.2 13.3557 11.6667 13.6446C11.1333 13.9335 10.5778 14.078 10 14.078C9.06667 14.078 8.27778 13.7557 7.63333 13.1113C6.98889 12.4669 6.66667 11.678 6.66667 10.7446C6.66667 9.8113 6.98889 9.02241 7.63333 8.37796C8.27778 7.73352 9.06667 7.41129 10 7.41129Z" fill="#012970" fill-opacity="0.5"/>
</g>
<defs>
<clipPath id="clip0_63_674">
<rect width="20" height="20" fill="white" transform="matrix(1 0 0 -1 0 20.7446)"/>
</clipPath>
</defs>
</svg>
