<svg width="20" height="21" viewBox="0 0 20 21" fill="none" xmlns="http://www.w3.org/2000/svg">
<g clip-path="url(#clip0_63_671)">
<path d="M20 10.8113C20 8.98907 19.5556 7.31129 18.6667 5.77796C17.7778 4.24463 16.5667 3.02241 15.0333 2.11129C13.5 1.20018 11.8222 0.744628 10 0.744628C8.17778 0.744628 6.5 1.20018 4.96667 2.11129C3.43333 3.02241 2.22222 4.24463 1.33333 5.77796C0.444444 7.31129 0 8.98907 0 10.8113C0 12.4557 0.366667 13.9891 1.1 15.4113C1.83333 16.8335 2.84444 18.0113 4.13333 18.9446C5.42222 19.878 6.86667 20.478 8.46667 20.7446V13.7446H5.86667V10.8113H8.46667V8.61129C8.46667 7.36685 8.8 6.40018 9.46667 5.71129C10.1333 5.02241 11.0444 4.67796 12.2 4.67796C12.6444 4.67796 13.1556 4.70018 13.7333 4.74463L14.4667 4.87796V7.34463H13.2C12.6222 7.34463 12.2 7.48907 11.9333 7.77796C11.6667 8.06685 11.5333 8.45574 11.5333 8.94463V10.8113H14.3333L13.8667 13.7446H11.5333V20.7446C13.1333 20.478 14.5778 19.878 15.8667 18.9446C17.1556 18.0113 18.1667 16.8335 18.9 15.4113C19.6333 13.9891 20 12.4557 20 10.8113Z" fill="#012970" fill-opacity="0.5"/>
</g>
<defs>
<clipPath id="clip0_63_671">
<rect width="20" height="20" fill="white" transform="matrix(1 0 0 -1 0 20.7446)"/>
</clipPath>
</defs>
</svg>
