<svg width="64" height="65" viewBox="0 0 64 65" fill="none" xmlns="http://www.w3.org/2000/svg">
<g clip-path="url(#clip0_59_1768)">
<path d="M17.44 13.7923C17.6 16.1657 18 18.4857 18.64 20.699L15.44 23.899C14.3467 20.699 13.6533 17.3123 13.4133 13.7923H17.44ZM43.7333 45.8457C46 46.4857 48.32 46.8857 50.6667 47.0457V51.019C47.1467 50.779 43.76 50.0857 40.5333 49.019L43.7333 45.8457ZM20 8.45898H10.6667C9.2 8.45898 8 9.65898 8 11.1257C8 36.1657 28.2933 56.459 53.3333 56.459C54.8 56.459 56 55.259 56 53.7923V44.4857C56 43.019 54.8 41.819 53.3333 41.819C50.0267 41.819 46.8 41.2857 43.8133 40.299C43.5467 40.1923 43.2533 40.1657 42.9867 40.1657C42.2933 40.1657 41.6267 40.4323 41.0933 40.939L35.2267 46.8056C27.68 42.939 21.4933 36.779 17.6533 29.2323L23.52 23.3657C24.2667 22.619 24.48 21.579 24.1867 20.6457C23.2 17.659 22.6667 14.459 22.6667 11.1257C22.6667 9.65898 21.4667 8.45898 20 8.45898Z" fill="#012970"/>
</g>
<defs>
<clipPath id="clip0_59_1768">
<rect width="64" height="64" fill="white" transform="translate(0 0.458984)"/>
</clipPath>
</defs>
</svg>
