<svg width="36" height="36" viewBox="0 0 36 36" fill="none" xmlns="http://www.w3.org/2000/svg">
<path d="M5.75684 26.75C5.75684 26.4389 5.85406 26.1861 6.0485 25.9917C6.24295 25.7972 6.49572 25.7 6.80684 25.7H28.7402C29.0513 25.7 29.3041 25.7972 29.4985 25.9917C29.6929 26.1861 29.7902 26.4389 29.7902 26.75C29.7902 27.0611 29.6929 27.3139 29.4985 27.5083C29.3041 27.7028 29.0513 27.8 28.7402 27.8H6.80684C6.49572 27.8 6.24295 27.7028 6.0485 27.5083C5.85406 27.3139 5.75684 27.0611 5.75684 26.75ZM5.75684 18C5.75684 17.6889 5.85406 17.4361 6.0485 17.2417C6.24295 17.0472 6.49572 16.95 6.80684 16.95H28.7402C29.0513 16.95 29.3041 17.0472 29.4985 17.2417C29.6929 17.4361 29.7902 17.6889 29.7902 18C29.7902 18.3111 29.6929 18.5639 29.4985 18.7583C29.3041 18.9528 29.0513 19.05 28.7402 19.05H6.80684C6.49572 19.05 6.24295 18.9528 6.0485 18.7583C5.85406 18.5639 5.75684 18.3111 5.75684 18ZM5.75684 9.24999C5.75684 8.93888 5.85406 8.6861 6.0485 8.49165C6.24295 8.29721 6.49572 8.19999 6.80684 8.19999H28.7402C29.0513 8.19999 29.3041 8.29721 29.4985 8.49165C29.6929 8.6861 29.7902 8.93888 29.7902 9.24999C29.7902 9.5611 29.6929 9.81388 29.4985 10.0083C29.3041 10.2028 29.0513 10.3 28.7402 10.3H6.80684C6.49572 10.3 6.24295 10.2028 6.0485 10.0083C5.85406 9.81388 5.75684 9.5611 5.75684 9.24999Z" fill="#012970"/>
</svg>
