<svg width="32" height="41" viewBox="0 0 32 41" fill="none" xmlns="http://www.w3.org/2000/svg">
<path d="M15.68 3.54888C13.3467 3.54888 11.1533 4.13222 9.1 5.29888C7.04667 6.46555 5.43667 8.05222 4.27 10.0589C3.10333 12.0655 2.52 14.2355 2.52 16.5689V19.2289H5.18C5.92667 19.2289 6.55667 19.4855 7.07 19.9989C7.58333 20.5122 7.84 21.1422 7.84 21.8889V29.7289C7.84 30.4755 7.58333 31.1055 7.07 31.6189C6.55667 32.1322 5.92667 32.3889 5.18 32.3889H2.52C1.77333 32.3889 1.16667 32.1322 0.7 31.6189C0.233333 31.1055 0 30.4755 0 29.7289V16.5689C0 13.7689 0.7 11.1555 2.1 8.72888C3.5 6.30221 5.39 4.38888 7.77 2.98888C10.15 1.58888 12.7867 0.888882 15.68 0.888882C18.5733 0.888882 21.21 1.58888 23.59 2.98888C25.97 4.38888 27.8833 6.30221 29.33 8.72888C30.7767 11.1555 31.5 13.7689 31.5 16.5689V32.3889C31.5 34.1622 30.8467 35.7022 29.54 37.0089C28.2333 38.3155 26.6933 38.9689 24.92 38.9689H19.32C19.04 39.3422 18.69 39.6455 18.27 39.8789C17.85 40.1122 17.4067 40.2289 16.94 40.2289H14.42C13.6733 40.2289 13.0433 39.9722 12.53 39.4589C12.0167 38.9455 11.76 38.3389 11.76 37.6389C11.76 36.9389 12.0167 36.3322 12.53 35.8189C13.0433 35.3055 13.6733 35.0489 14.42 35.0489H16.94C17.4067 35.0489 17.85 35.1655 18.27 35.3989C18.69 35.6322 19.04 35.9355 19.32 36.3089H24.92C25.9467 36.3089 26.8567 35.9355 27.65 35.1889C28.4433 34.4422 28.84 33.5089 28.84 32.3889H26.18C25.4333 32.3889 24.8033 32.1322 24.29 31.6189C23.7767 31.1055 23.52 30.4755 23.52 29.7289V21.8889C23.52 21.1422 23.7767 20.5122 24.29 19.9989C24.8033 19.4855 25.4333 19.2289 26.18 19.2289H28.84V16.5689C28.84 14.2355 28.2567 12.0655 27.09 10.0589C25.9233 8.05222 24.3133 6.46555 22.26 5.29888C20.2067 4.13222 18.0133 3.54888 15.68 3.54888Z" fill="#15BE56"/>
</svg>
