<svg width="25" height="17" viewBox="0 0 25 17" fill="none" xmlns="http://www.w3.org/2000/svg">
<path d="M0 8.50001C0 8.25197 0.0775115 8.05044 0.232535 7.89542C0.387558 7.74039 0.589088 7.66288 0.837125 7.66288H21.3932L15.9054 2.17507C15.7193 1.98904 15.6263 1.77201 15.6263 1.52397C15.6263 1.27593 15.7193 1.0744 15.9054 0.919379C16.0914 0.764356 16.3084 0.686844 16.5565 0.686844C16.8045 0.686844 17.0215 0.748853 17.2076 0.872872L24.1836 7.84891C24.3076 8.03494 24.3696 8.25197 24.3696 8.50001C24.3696 8.74804 24.3076 8.96508 24.1836 9.1511L17.2076 16.1271C17.0215 16.2512 16.8045 16.3132 16.5565 16.3132C16.3084 16.3132 16.0914 16.2357 15.9054 16.0806C15.7193 15.9256 15.6263 15.7241 15.6263 15.476C15.6263 15.228 15.7193 15.011 15.9054 14.8249L21.3932 9.33713H0.837125C0.589088 9.33713 0.387558 9.25962 0.232535 9.1046C0.0775115 8.94957 0 8.74804 0 8.50001Z" fill="white"/>
</svg>
